<svg width="540" height="200" viewBox="0 0 540 200" fill="none" xmlns="http://www.w3.org/2000/svg">
<path opacity="0.2" fill-rule="evenodd" clip-rule="evenodd" d="M475 26C475 21.5817 478.582 18 483 18H532C536.418 18 540 21.5817 540 26V200H475V26ZM198 84C193.582 84 190 87.5817 190 92V200H255V92C255 87.5817 251.418 84 247 84H198ZM103 110C98.5817 110 95 113.582 95 118V200H160V118C160 113.582 156.418 110 152 110H103ZM8 140C3.58172 140 0 143.582 0 148V200H65V148C65 143.582 61.4183 140 57 140H8Z" fill="#FF8364"/>
<path fill-rule="evenodd" clip-rule="evenodd" d="M475 61C475 56.5817 478.582 53 483 53H532C536.418 53 540 56.5817 540 61V200H475V61ZM198 120C193.582 120 190 123.582 190 128V200H255V128C255 123.582 251.418 120 247 120H198ZM103 150C98.5817 150 95 153.582 95 158V200H160V158C160 153.582 156.418 150 152 150H103ZM8 180C3.58172 180 0 183.582 0 188V200H65V188C65 183.582 61.4183 180 57 180H8Z" fill="#FF8364"/>
<path opacity="0.2" d="M380 52C380 47.5817 383.582 44 388 44H437C441.418 44 445 47.5817 445 52V200H380V52Z" fill="#FF8364"/>
<path opacity="0.2" d="M285 73C285 68.5817 288.582 65 293 65H342C346.418 65 350 68.5817 350 73V200H285V73Z" fill="#FF8364"/>
<path fill-rule="evenodd" clip-rule="evenodd" d="M380 91C380 86.5817 383.582 83 388 83H437C441.418 83 445 86.5817 445 91V200H380V91Z" fill="#FF8364"/>
<path d="M285 118C285 113.582 288.582 110 293 110H342C346.418 110 350 113.582 350 118V200H285V118Z" fill="#FF8364"/>
</svg>
