<svg width="20" height="20" viewBox="0 0 20 20" fill="none" xmlns="http://www.w3.org/2000/svg">
<path fill-rule="evenodd" clip-rule="evenodd" d="M10 16.6667C13.6819 16.6667 16.6667 13.6819 16.6667 9.99999C16.6667 6.31809 13.6819 3.33332 10 3.33332C6.3181 3.33332 3.33333 6.31809 3.33333 9.99999C3.33333 13.6819 6.3181 16.6667 10 16.6667ZM10 18.3333C14.6023 18.3333 18.3333 14.6023 18.3333 9.99999C18.3333 5.39761 14.6023 1.66666 10 1.66666C5.39762 1.66666 1.66666 5.39761 1.66666 9.99999C1.66666 14.6023 5.39762 18.3333 10 18.3333Z" fill="#777E91"/>
<path d="M10 8.33334C10 7.87311 10.3731 7.50001 10.8333 7.50001H11.6667C12.1269 7.50001 12.5 7.12692 12.5 6.66668C12.5 6.20644 12.1269 5.83334 11.6667 5.83334H10.8333C9.45258 5.83334 8.33333 6.95264 8.33333 8.33334V10H7.5C7.03976 10 6.66666 10.3731 6.66666 10.8333C6.66666 11.2936 7.03976 11.6667 7.5 11.6667H8.33333V16.6667C8.33333 17.1269 8.70641 17.5 9.16666 17.5C9.62691 17.5 10 17.1269 10 16.6667V11.6667H11.6667C12.1269 11.6667 12.5 11.2936 12.5 10.8333C12.5 10.3731 12.1269 10 11.6667 10H10V8.33334Z" fill="#777E91"/>
</svg>
