<svg width="20" height="20" viewBox="0 0 20 20" fill="none" xmlns="http://www.w3.org/2000/svg">
<path fill-rule="evenodd" clip-rule="evenodd" d="M13.3333 3.33332H6.66667C4.82572 3.33332 3.33334 4.82571 3.33334 6.66666V13.3333C3.33334 15.1742 4.82572 16.6667 6.66667 16.6667H13.3333C15.1743 16.6667 16.6667 15.1742 16.6667 13.3333V6.66666C16.6667 4.82571 15.1743 3.33332 13.3333 3.33332ZM6.66667 1.66666C3.90525 1.66666 1.66667 3.90523 1.66667 6.66666V13.3333C1.66667 16.0947 3.90525 18.3333 6.66667 18.3333H13.3333C16.0948 18.3333 18.3333 16.0947 18.3333 13.3333V6.66666C18.3333 3.90523 16.0948 1.66666 13.3333 1.66666H6.66667Z" fill="#777E91"/>
<path d="M14.1667 6.66667C14.6269 6.66667 15 6.29357 15 5.83333C15 5.3731 14.6269 5 14.1667 5C13.7064 5 13.3333 5.3731 13.3333 5.83333C13.3333 6.29357 13.7064 6.66667 14.1667 6.66667Z" fill="#777E91"/>
<path fill-rule="evenodd" clip-rule="evenodd" d="M14.1667 10C14.1667 12.3012 12.3012 14.1667 9.99999 14.1667C7.69881 14.1667 5.83333 12.3012 5.83333 10C5.83333 7.69883 7.69881 5.83334 9.99999 5.83334C12.3012 5.83334 14.1667 7.69883 14.1667 10ZM12.5 10C12.5 11.3808 11.3807 12.5 9.99999 12.5C8.61924 12.5 7.49999 11.3808 7.49999 10C7.49999 8.61926 8.61924 7.50001 9.99999 7.50001C11.3807 7.50001 12.5 8.61926 12.5 10Z" fill="#777E91"/>
</svg>
