<svg width="165" height="164" viewBox="0 0 165 164" fill="none" xmlns="http://www.w3.org/2000/svg">
<g clip-path="url(#clip0_32:716)">
<path d="M135.88 126.052C135.401 125.355 134.61 124.939 133.765 124.939H102.985C102.171 124.939 101.405 125.325 100.922 125.98C100.438 126.635 100.294 127.48 100.533 128.258L110.793 161.604C111.124 162.68 112.119 163.414 113.245 163.414H120.94C122.001 163.414 122.953 162.761 123.334 161.77L136.159 128.425C136.463 127.636 136.358 126.749 135.88 126.052Z" fill="#06AECD"/>
<path d="M61.9438 124.939H31.1635C30.3183 124.939 29.5274 125.355 29.049 126.052C28.5705 126.749 28.4662 127.636 28.7694 128.425L41.5945 161.77C41.9753 162.761 42.9274 163.414 43.9886 163.414H51.6838C52.8098 163.414 53.804 162.68 54.1353 161.604L64.3953 128.258C64.6347 127.481 64.4904 126.635 64.0069 125.98C63.5236 125.325 62.758 124.939 61.9438 124.939Z" fill="#06AECD"/>
<path d="M132.896 73.7982L128.617 37.4284C128.413 35.6943 126.488 34.6516 124.923 35.4339L99.7737 48.0085C94.177 46.2926 88.3592 45.4232 82.4642 45.4232C76.5692 45.4232 70.751 46.2923 65.1547 48.0085L40.0059 35.4339C38.441 34.6513 36.5151 35.6953 36.3112 37.4284L32.0324 73.7982C26.4281 83.0107 23.4685 93.5851 23.4685 104.419C23.4685 136.949 49.9339 163.415 82.4642 163.415C114.994 163.415 141.46 136.949 141.46 104.419C141.46 93.5844 138.501 83.0101 132.896 73.7982Z" fill="#06AECD"/>
<path d="M85.0294 155.713C52.4991 155.713 26.0337 129.247 26.0337 96.717C26.0337 91.7055 26.6749 86.7523 27.9104 81.9609C24.9929 89.0455 23.4688 96.6644 23.4688 104.419C23.4685 136.949 49.934 163.415 82.4643 163.415C109.929 163.415 133.069 144.55 139.611 119.098C130.778 140.562 109.641 155.713 85.0294 155.713Z" fill="#008EA8"/>
<path d="M124.232 66.012L122.256 49.2123C122.158 48.3821 121.662 47.6519 120.927 47.2548C120.191 46.8578 119.309 46.8437 118.561 47.2175L104.726 54.1351C103.896 54.5501 103.355 55.3809 103.311 56.3077C103.267 57.2343 103.727 58.1129 104.514 58.6048L120.325 68.4869C120.741 68.747 121.213 68.8769 121.684 68.8769C122.161 68.8769 122.638 68.7441 123.057 68.4786C123.89 67.9507 124.347 66.9919 124.232 66.012Z" fill="#008EA8"/>
<path d="M60.2028 54.1353L46.3678 47.2176C45.6206 46.8438 44.7381 46.8576 44.0021 47.2549C43.2664 47.652 42.7708 48.3822 42.6731 49.2124L40.6968 66.0122C40.5816 66.992 41.0383 67.9508 41.872 68.4787C42.2911 68.7442 42.7676 68.877 43.2447 68.877C43.7165 68.877 44.1882 68.7471 44.6041 68.487L60.4154 58.6049C61.2021 58.1131 61.662 57.2347 61.618 56.3078C61.5739 55.381 61.0326 54.5502 60.2028 54.1353Z" fill="#008EA8"/>
<path d="M110.68 86.463C109.263 86.463 108.114 85.3146 108.114 83.8978C108.114 82.4836 106.964 81.3326 105.549 81.3326C104.135 81.3326 102.984 82.4833 102.984 83.8978C102.984 85.3143 101.836 86.463 100.419 86.463C99.0022 86.463 97.8539 85.3146 97.8539 83.8978C97.8539 79.6545 101.306 76.2026 105.549 76.2026C109.792 76.2026 113.244 79.6545 113.244 83.8978C113.244 85.3146 112.096 86.463 110.68 86.463Z" fill="#008EA8"/>
<path d="M64.509 86.463C63.0926 86.463 61.9439 85.3146 61.9439 83.8978C61.9439 82.4836 60.7933 81.3326 59.3787 81.3326C57.9642 81.3326 56.8136 82.4833 56.8136 83.8978C56.8136 85.3143 55.6652 86.463 54.2484 86.463C52.8316 86.463 51.6833 85.3146 51.6833 83.8978C51.6833 79.6545 55.1351 76.2026 59.3784 76.2026C63.6217 76.2026 67.0736 79.6545 67.0736 83.8978C67.0739 85.3146 65.9258 86.463 64.509 86.463Z" fill="#008EA8"/>
<path d="M82.4641 86.4629C72.5638 86.4629 64.509 92.7914 64.509 100.57C64.509 108.35 72.5638 114.678 82.4641 114.678C92.3647 114.678 100.419 108.35 100.419 100.57C100.419 92.7914 92.3647 86.4629 82.4641 86.4629Z" fill="#D4F4EF"/>
<path d="M82.4641 109.549C73.679 109.549 66.3518 104.564 64.8119 98.0059C64.6162 98.8382 64.509 99.6946 64.509 100.571C64.509 108.35 72.5638 114.679 82.4641 114.679C92.3647 114.679 100.419 108.35 100.419 100.571C100.419 99.6946 100.312 98.8382 100.116 98.0059C98.5764 104.564 91.2495 109.549 82.4641 109.549Z" fill="#AAE9DF"/>
<path d="M74.7691 104.419C73.7079 104.419 72.7293 103.738 72.3632 102.741C71.9987 101.749 72.2927 100.588 73.103 99.9024C73.9415 99.1935 75.1709 99.093 76.109 99.6672C77.0144 100.221 77.4932 101.312 77.2835 102.354C77.0441 103.538 75.9816 104.419 74.7691 104.419Z" fill="#008EA8"/>
<path d="M90.1595 104.419C89.0986 104.419 88.119 103.738 87.7536 102.741C87.3894 101.749 87.6831 100.588 88.4934 99.9024C89.3316 99.1935 90.5613 99.093 91.4994 99.6672C92.4045 100.221 92.8836 101.313 92.6739 102.354C92.4342 103.538 91.3717 104.419 90.1595 104.419Z" fill="#008EA8"/>
<path d="M82.4643 126.913C73.6619 126.913 65.1791 124.302 57.933 119.363C56.7623 118.566 56.4603 116.97 57.2582 115.799C58.0558 114.629 59.652 114.327 60.8224 115.124C67.2134 119.48 74.6973 121.783 82.4646 121.783C90.2315 121.783 97.7148 119.481 104.105 115.125C105.276 114.328 106.871 114.629 107.669 115.8C108.467 116.971 108.165 118.566 106.995 119.364C99.7485 124.303 91.266 126.913 82.4643 126.913Z" fill="#008EA8"/>
<path d="M82.4645 0C70.1477 0 60.1271 10.0203 60.1271 22.3373C60.1271 34.6544 70.1474 44.6747 82.4645 44.6747C94.7815 44.6747 104.802 34.654 104.802 22.3373C104.802 10.0206 94.7812 0 82.4645 0Z" fill="#FCE780"/>
<path d="M82.4641 4.38232C72.5638 4.38232 64.509 12.4372 64.509 22.3375C64.509 32.2378 72.5638 40.2926 82.4641 40.2926C92.3644 40.2926 100.419 32.2378 100.419 22.3375C100.419 12.4372 92.3647 4.38232 82.4641 4.38232Z" fill="#FAD000"/>
<path d="M85.0297 19.7719H79.8997V14.6419L82.4326 14.6403C82.4435 14.6403 82.4537 14.6419 82.4645 14.6419C82.4757 14.6419 82.4862 14.6403 82.4974 14.6403L85.0294 14.6387C85.0294 14.6387 85.0294 14.6397 85.0294 14.6419C85.0294 16.0584 86.1777 17.2071 87.5945 17.2071C89.0113 17.2071 90.1597 16.0587 90.1597 14.6419C90.1597 11.8135 87.8582 9.51193 85.0297 9.51193C85.0297 8.09546 83.8813 6.94678 82.4645 6.94678C81.0481 6.94678 79.8994 8.09515 79.8994 9.51193C77.0709 9.51193 74.7694 11.8135 74.7694 14.6419V19.7719C74.7694 22.6004 77.0709 24.9019 79.8994 24.9019H85.0294V30.0319H79.8994C79.8994 28.6154 78.751 27.4668 77.3342 27.4668C75.9177 27.4668 74.769 28.6151 74.769 30.0319C74.769 32.8604 77.0706 35.1619 79.899 35.1619C79.899 36.5784 81.0474 37.7271 82.4642 37.7271C83.8807 37.7271 85.0294 36.5787 85.0294 35.1619C87.8578 35.1619 90.1594 32.8604 90.1594 30.0319V24.9022C90.1597 22.0731 87.8585 19.7719 85.0297 19.7719Z" fill="#FA892D"/>
<path d="M156.85 73.6376H154.285V71.0725C154.285 69.656 153.136 68.5073 151.72 68.5073C150.303 68.5073 149.154 69.6557 149.154 71.0725V73.6376H146.589C145.173 73.6376 144.024 74.786 144.024 76.2028C144.024 77.6193 145.172 78.768 146.589 78.768H149.154V81.3331C149.154 82.7496 150.303 83.8983 151.72 83.8983C153.136 83.8983 154.285 82.7499 154.285 81.3331V78.768H156.85C158.266 78.768 159.415 77.6196 159.415 76.2028C159.415 74.7863 158.266 73.6376 156.85 73.6376Z" fill="#FBA761"/>
<path d="M126.07 9.51215H123.505V6.94699C123.505 5.53052 122.356 4.38184 120.94 4.38184C119.523 4.38184 118.374 5.5302 118.374 6.94699V9.51215H115.809C114.393 9.51215 113.244 10.6605 113.244 12.0773C113.244 13.4941 114.393 14.6425 115.809 14.6425H118.374V17.2076C118.374 18.6241 119.523 19.7728 120.94 19.7728C122.356 19.7728 123.505 18.6244 123.505 17.2076V14.6425H126.07C127.486 14.6425 128.635 13.4941 128.635 12.0773C128.635 10.6605 127.486 9.51215 126.07 9.51215Z" fill="#FBA761"/>
<path d="M18.338 58.248H15.7729V55.6828C15.7729 54.2664 14.6245 53.1177 13.2077 53.1177C11.7909 53.1177 10.6426 54.266 10.6426 55.6828V58.248H8.0774C6.66093 58.248 5.51224 59.3964 5.51224 60.8131C5.51224 62.2296 6.66061 63.3783 8.0774 63.3783H10.6426V65.9435C10.6426 67.3599 11.7909 68.5086 13.2077 68.5086C14.6245 68.5086 15.7729 67.3602 15.7729 65.9435V63.3783H18.338C19.7545 63.3783 20.9032 62.2299 20.9032 60.8131C20.9032 59.3964 19.7551 58.248 18.338 58.248Z" fill="#FBA761"/>
</g>
<defs>
<clipPath id="clip0_32:716">
<rect width="163.414" height="163.414" fill="white" transform="translate(0.757141)"/>
</clipPath>
</defs>
</svg>
