<svg width="164" height="164" viewBox="0 0 164 164" fill="none" xmlns="http://www.w3.org/2000/svg">
<g clip-path="url(#clip0_32:741)">
<path d="M73.7976 123.718C72.4752 123.718 71.4038 124.789 71.4038 126.112V144.443C71.4038 145.766 72.4752 146.837 73.7976 146.837C75.1199 146.837 76.1913 145.766 76.1913 144.443V126.112C76.1913 124.789 75.1199 123.718 73.7976 123.718Z" fill="#75E9FF"/>
<path d="M54.4279 123.718C53.1056 123.718 52.0341 124.789 52.0341 126.112V144.443C52.0341 145.766 53.1056 146.837 54.4279 146.837C55.7502 146.837 56.8216 145.766 56.8216 144.443V126.112C56.8216 124.789 55.7502 123.718 54.4279 123.718Z" fill="#75E9FF"/>
<path d="M64.1128 124.865C62.7905 124.865 61.7191 125.936 61.7191 127.259V156.035C61.7191 157.357 62.7905 158.429 64.1128 158.429C65.4351 158.429 66.5066 157.357 66.5066 156.035V127.259C66.5066 125.937 65.4348 124.865 64.1128 124.865Z" fill="#75E9FF"/>
<path d="M127.118 58.7866H145.45C146.772 58.7866 147.844 57.7151 147.844 56.3928C147.844 55.0705 146.772 53.999 145.45 53.999H127.118C125.796 53.999 124.725 55.0705 124.725 56.3928C124.725 57.7151 125.796 58.7866 127.118 58.7866Z" fill="#75E9FF"/>
<path d="M145.45 73.3779H127.118C125.796 73.3779 124.724 74.4494 124.724 75.7717C124.724 77.094 125.796 78.1655 127.118 78.1655H145.45C146.772 78.1655 147.844 77.094 147.844 75.7717C147.844 74.4494 146.772 73.3779 145.45 73.3779Z" fill="#75E9FF"/>
<path d="M157.208 63.6841H127.856C126.534 63.6841 125.463 64.7555 125.463 66.0778C125.463 67.4002 126.534 68.4716 127.856 68.4716H157.208C158.53 68.4716 159.601 67.4002 159.601 66.0778C159.601 64.7555 158.53 63.6841 157.208 63.6841Z" fill="#75E9FF"/>
<path d="M149.32 162.842L116.306 129.827C115.535 129.057 115.535 127.807 116.306 127.037L127.466 115.877C128.236 115.107 129.485 115.107 130.256 115.877L163.27 148.892C164.041 149.662 164.041 150.911 163.27 151.682L152.11 162.842C151.34 163.612 150.091 163.612 149.32 162.842Z" fill="#F78E36"/>
<path d="M127.451 115.877L120.476 122.852C121.247 122.082 122.496 122.082 123.266 122.852L156.281 155.867C157.052 156.638 157.052 157.887 156.281 158.657L163.256 151.682C164.027 150.912 164.027 149.663 163.256 148.892L130.241 115.877C129.471 115.107 128.221 115.107 127.451 115.877Z" fill="#F86F1B"/>
<path d="M103.171 109.734L110.145 102.761L125.345 117.961L118.371 124.935L103.171 109.734Z" fill="#4380A0"/>
<path d="M122.431 135.985L136.379 122.037L143.353 129.011L129.405 142.959L122.431 135.985Z" fill="#75E9FF"/>
<path d="M129.412 129.013L136.386 122.039L143.36 129.013L136.386 135.987L129.412 129.013Z" fill="#33D3F0"/>
<path d="M64.5447 128.232C99.9551 128.232 128.661 99.5266 128.661 64.1162C128.661 28.7058 99.9551 0 64.5447 0C29.1343 0 0.428558 28.7058 0.428558 64.1162C0.428558 99.5266 29.1343 128.232 64.5447 128.232Z" fill="#43809F"/>
<path d="M64.5461 0C62.8867 0 61.2417 0.0631954 59.614 0.187033C92.72 2.70559 118.798 30.3654 118.798 64.1165C118.798 97.8676 92.72 125.527 59.614 128.046C61.2417 128.17 62.8864 128.233 64.5461 128.233C99.9565 128.233 128.662 99.5273 128.662 64.1168C128.662 28.7063 99.9565 0 64.5461 0V0Z" fill="#3A7190"/>
<path d="M64.5455 118.369C94.5082 118.369 118.798 94.0797 118.798 64.117C118.798 34.1543 94.5082 9.86475 64.5455 9.86475C34.5828 9.86475 10.2932 34.1543 10.2932 64.117C10.2932 94.0797 34.5828 118.369 64.5455 118.369Z" fill="#F3F3F3"/>
<path d="M64.5461 9.86475C62.8832 9.86475 61.2392 9.94422 59.614 10.0914C87.2259 12.5917 108.934 35.8649 108.934 64.117C108.934 92.3692 87.2259 115.642 59.614 118.143C61.2392 118.29 62.8832 118.369 64.5461 118.369C94.4608 118.369 118.798 94.0317 118.798 64.117C118.798 34.2023 94.4611 9.86475 64.5461 9.86475Z" fill="#E4E4E4"/>
<path d="M55.5041 65.2687H35.776V36.3343C35.776 35.6079 36.3649 35.019 37.0913 35.019H54.1888C54.9153 35.019 55.5041 35.6079 55.5041 36.3343V65.2687Z" fill="#06AECD"/>
<path d="M45.6407 35.019V65.2687H55.5046V36.3343C55.5046 35.6079 54.9158 35.019 54.1894 35.019H45.6407Z" fill="#008EA8"/>
<path d="M94.9611 65.2719H75.233V48.8319C75.233 48.1055 75.8218 47.5166 76.5483 47.5166H93.6458C94.3722 47.5166 94.9611 48.1055 94.9611 48.8319V65.2719Z" fill="#75E9FF"/>
<path d="M85.0977 47.5166V65.2719H94.9617V48.8319C94.9617 48.1055 94.3728 47.5166 93.6464 47.5166H85.0977Z" fill="#33D3F0"/>
<path d="M75.2326 65.2663H55.5045V23.8373C55.5045 23.1108 56.0933 22.522 56.8198 22.522H73.9173C74.6437 22.522 75.2326 23.1108 75.2326 23.8373V65.2663Z" fill="#F78E36"/>
<path d="M65.3693 22.522V65.2663H75.2332V23.8373C75.2332 23.1108 74.6443 22.522 73.9179 22.522H65.3693Z" fill="#F86F1B"/>
<path d="M100.729 62.876H30.0116C28.6893 62.876 27.6179 63.9474 27.6179 65.2697C27.6179 66.5921 28.6893 67.6635 30.0116 67.6635H100.729C102.051 67.6635 103.123 66.5921 103.123 65.2697C103.123 63.9474 102.051 62.876 100.729 62.876Z" fill="#43809F"/>
<path d="M92.9819 88.6983H81.323L76.0312 75.1703C75.6696 74.2457 74.7679 73.6405 73.7807 73.6485C72.7875 73.6575 71.9027 74.2789 71.5574 75.2102L64.2807 94.8324L59.1772 80.367C58.8644 79.4797 58.0607 78.858 57.123 78.7782C56.184 78.6955 55.2884 79.1746 54.8295 79.9961L49.9711 88.698H38.3498C37.0275 88.698 35.9561 89.7694 35.9561 91.0917C35.9561 92.414 37.0275 93.4855 38.3498 93.4855H51.3761C52.2436 93.4855 53.0434 93.016 53.4663 92.2586L56.4253 86.9582L61.9667 102.664C62.3018 103.615 63.1968 104.254 64.205 104.262H64.2245C65.2245 104.262 66.1204 103.64 66.4686 102.7L73.8612 82.7656L77.4592 91.9637C77.8182 92.8813 78.7026 93.4855 79.6882 93.4855H92.981C94.3033 93.4855 95.3747 92.414 95.3747 91.0917C95.3747 89.7694 94.3042 88.6983 92.9819 88.6983Z" fill="#33D3F0"/>
</g>
<defs>
<clipPath id="clip0_32:741">
<rect width="163.414" height="163.414" fill="white" transform="translate(0.428558)"/>
</clipPath>
</defs>
</svg>
