<svg width="20" height="20" viewBox="0 0 20 20" fill="none" xmlns="http://www.w3.org/2000/svg">
<path fill-rule="evenodd" clip-rule="evenodd" d="M2.65062 11.6665C1.27252 11.6704 0.382923 13.2403 1.23192 14.4298C2.44777 16.133 4.65256 17.5 8.33341 17.5C14.0377 17.5 18.6165 12.8514 17.9755 7.35925L18.9146 5.48108C19.5658 4.17857 18.4342 2.69685 17.0062 2.98245L15.7655 3.23057C15.4366 3.05702 15.0962 2.92606 14.8052 2.83117C14.2382 2.64627 13.552 2.5 12.9167 2.5C11.7757 2.5 10.7908 2.79276 10.0082 3.37994C9.23441 3.96053 8.79858 4.72354 8.55941 5.42421C8.44916 5.74717 8.37575 6.07112 8.32864 6.38203C7.88591 6.24269 7.43449 6.05522 6.99254 5.82629C5.98987 5.30693 5.17908 4.64852 4.7217 4.07126C3.95435 3.10275 2.32815 3.17456 1.7575 4.43351C0.953212 6.20789 1.17384 8.31122 1.89679 10.0108C2.1391 10.5803 2.45431 11.1434 2.8394 11.6652C2.77348 11.666 2.71041 11.6663 2.65062 11.6665ZM8.33333 15.8333C5.11388 15.8333 3.44915 14.6672 2.58836 13.4614C2.54969 13.4072 2.58869 13.3333 2.65525 13.3332C3.53095 13.3307 5.32845 13.2892 6.51395 12.5954C6.57525 12.5595 6.56176 12.4691 6.49443 12.4465C3.73095 11.5173 2.1601 7.58216 3.27541 5.12158C3.30099 5.06517 3.37682 5.05772 3.4153 5.10628C4.68935 6.71432 7.47502 8.28933 9.89866 8.33242C9.95125 8.33333 9.991 8.28558 9.983 8.23361C9.88533 7.60044 9.51241 4.16667 12.9167 4.16667C13.7296 4.16667 14.9391 4.56319 15.3846 4.96942C15.4052 4.98819 15.4331 4.99672 15.4604 4.99125L17.3329 4.61675C17.4009 4.60315 17.4548 4.67371 17.4238 4.73573L16.2624 7.05849C16.2543 7.07462 16.2518 7.09312 16.2549 7.11088C17.0683 11.6833 13.3233 15.8333 8.33333 15.8333Z" fill="#777E91"/>
</svg>
