<svg width="158" height="17" viewBox="0 0 158 17" fill="none" xmlns="http://www.w3.org/2000/svg">
  <path d="M14.0474 16.7639H9.97375L4.82804 6.84722V16.7639H0.96875V0.236111H5.04244L10.1882 10.1528V0.236111H14.0474V16.7639Z" fill="white"/>
  <path d="M30.6739 16.7639H18.7744V0.236111H30.6739V3.54167H22.6337V6.72917H28.9586V10.0347H22.6337V13.4583H30.6739V16.7639Z" fill="white"/>
  <path d="M45.4628 0.236111L48.0356 10.8611L50.2869 0.236111H54.4678L50.3941 16.7639H46.3204L43.7475 6.49306L41.1747 16.7639H37.101L33.0273 0.236111H37.2082L39.4594 10.8611L42.0323 0.236111H45.4628Z" fill="white"/>
  <path d="M61.5532 16.7639H57.6939V0.236111H69.5934V3.54167H61.5532V7.4375H67.8781V10.7431H61.5532V16.7639Z" fill="white"/>
  <path d="M82.8865 4.72222C82.8865 3.77778 82.4576 3.30556 81.6 3.30556H77.9551C77.0975 3.30556 76.6687 3.77778 76.6687 4.72222V12.2778C76.6687 13.2222 77.0975 13.6944 77.9551 13.6944H81.6C82.4576 13.6944 82.8865 13.2222 82.8865 12.2778V4.72222ZM86.7457 12.2778C86.7457 13.9306 86.4027 15.1347 85.7166 15.8903C85.0448 16.6301 83.9585 17 82.4576 17H77.0975C75.5967 17 74.5032 16.6301 73.8171 15.8903C73.1453 15.1347 72.8094 13.9306 72.8094 12.2778V4.72222C72.8094 3.06945 73.1453 1.87315 73.8171 1.13333C74.5032 0.377778 75.5967 0 77.0975 0H82.4576C83.9585 0 85.0448 0.377778 85.7166 1.13333C86.4027 1.87315 86.7457 3.06945 86.7457 4.72222V12.2778Z" fill="white"/>
  <path d="M91.0439 0.236111H100.049C101.55 0.236111 102.636 0.613889 103.308 1.36945C103.994 2.10926 104.337 3.30556 104.337 4.95833V7.08333C104.337 8.38981 104.137 9.40509 103.737 10.1292C103.351 10.8532 102.729 11.3333 101.871 11.5694L104.551 16.7639H100.37L97.9048 11.8056H94.9032V16.7639H91.0439V0.236111ZM100.478 4.95833C100.478 4.01389 100.049 3.54167 99.1913 3.54167H94.9032V8.5H99.1913C100.049 8.5 100.478 8.02778 100.478 7.08333V4.95833Z" fill="white"/>
  <path d="M121.484 7.55556L118.482 13.4583H115.48L112.479 7.55556V16.7639H108.619V0.236111H112.693L116.981 8.97222L121.269 0.236111H125.343V16.7639H121.484V7.55556Z" fill="white"/>
  <path d="M132.748 16.7639H128.567L134.249 0.236111H138.537L144.219 16.7639H140.038L139.073 13.8125H133.713L132.748 16.7639ZM134.678 10.7431H138.108L136.393 5.19445L134.678 10.7431Z" fill="white"/>
  <path d="M153.216 16.7639H149.357V3.54167H144.854V0.236111H157.719V3.54167H153.216V16.7639Z" fill="white"/>
</svg>
