<svg width="164" height="165" viewBox="0 0 164 165" fill="none" xmlns="http://www.w3.org/2000/svg">
<g clip-path="url(#clip0_32:692)">
<path d="M59.1296 146.956L35.2258 123.052C32.6498 120.476 32.6498 116.3 35.2258 113.724C37.8018 111.148 41.9781 111.148 44.5541 113.724L70.6442 139.814" fill="#FDD0AB"/>
<path d="M62.9596 143.126L39.0558 119.222C37.1632 117.33 36.6668 114.575 37.5554 112.224C36.7067 112.544 35.9091 113.041 35.2258 113.724C32.6498 116.3 32.6498 120.476 35.2258 123.052L59.1296 146.956L70.6442 139.814L69.7464 138.916L62.9596 143.126Z" fill="#FCC496"/>
<path d="M71.2272 140.397L53.8823 123.052C51.3063 120.476 51.3063 116.3 53.8823 113.724C56.4583 111.148 60.6347 111.148 63.2107 113.724L88.718 139.231" fill="#FDD0AB"/>
<path d="M77.0833 137.844L59.7384 120.499C57.3689 118.129 57.1851 114.408 59.1751 111.822C57.284 111.642 55.3304 112.276 53.8823 113.724C51.3063 116.3 51.3063 120.476 53.8823 123.052L71.2272 140.397L88.718 139.231L86.6903 137.203L77.0833 137.844Z" fill="#FCC496"/>
<path d="M88.0905 138.718L72.7864 123.414C70.2104 120.838 70.2104 116.662 72.7864 114.086C75.3624 111.51 79.5387 111.51 82.1147 114.086L97.1274 129.099" fill="#FDD0AB"/>
<path d="M77.8931 119.468C75.9366 117.511 75.4699 114.632 76.4859 112.231C75.1323 112.431 73.8281 113.043 72.7864 114.085C70.2104 116.661 70.2104 120.838 72.7864 123.414L88.0905 138.718L92.4756 134.05L77.8931 119.468Z" fill="#FCC496"/>
<path d="M87.5528 119.614L78.2245 128.942L47.9073 135.939L31.5732 119.604C29.0384 117.07 24.9032 116.876 22.2851 119.325C19.5479 121.886 19.4936 126.182 22.1226 128.811L47.9073 154.595H89.885L113.206 149.931L125.929 162.654C126.926 163.651 128.543 163.651 129.54 162.654L146.918 145.276C147.915 144.279 147.915 142.662 146.918 141.665L124.866 119.614C114.562 109.31 97.8565 109.31 87.5528 119.614Z" fill="#FEE2CA"/>
<path d="M53.2961 128.667L78.1363 128.854V142.046L53.1968 141.859C49.5538 141.832 46.6229 138.856 46.6503 135.213C46.6778 131.57 49.6534 128.64 53.2961 128.667Z" fill="#FEE2CA"/>
<path d="M78.1368 136.619V142.047L53.1973 141.859C50.0366 141.835 47.4149 139.591 46.7935 136.619H78.1368Z" fill="#FDD0AB"/>
<path d="M22.1297 119.489L50.2398 147.599H92.2171L116.024 141.106C117.166 140.795 118.387 141.119 119.224 141.956L134.731 157.463L129.54 162.654C128.543 163.651 126.926 163.651 125.929 162.654L113.206 149.931L89.885 154.595H47.9076L22.1229 128.81C19.5476 126.235 19.5549 122.065 22.1297 119.489Z" fill="#FDD0AB"/>
<path d="M134.166 44.1126C120.18 30.127 101.586 22.4248 81.8071 22.4248C62.0282 22.4248 43.4335 30.127 29.4478 44.1126C15.4622 58.0983 7.76001 76.693 7.76001 96.4719C7.76001 97.882 8.90327 99.0252 10.3134 99.0252H153.301C154.711 99.0252 155.854 97.882 155.854 96.4719C155.854 76.693 148.152 58.0983 134.166 44.1126Z" fill="#E4DAD8"/>
<path d="M15.4201 96.4719C15.4201 76.693 23.1222 58.0983 37.1079 44.1126C50.1871 31.0334 67.2974 23.4513 85.6371 22.5231C84.3659 22.4586 83.0892 22.4248 81.8071 22.4248C62.0282 22.4248 43.4335 30.127 29.4478 44.1126C15.4622 58.0983 7.76001 76.693 7.76001 96.4719C7.76001 97.882 8.90327 99.0252 10.3134 99.0252H17.9734C16.5633 99.0252 15.4201 97.882 15.4201 96.4719Z" fill="#D7C8C5"/>
<path d="M160.961 93.9185H2.65332C1.24324 93.9185 0.0999756 95.0617 0.0999756 96.4718V106.685C0.0999756 108.095 1.24324 109.239 2.65332 109.239H160.961C162.371 109.239 163.514 108.095 163.514 106.685V96.4718C163.514 95.0614 162.371 93.9185 160.961 93.9185Z" fill="#956B64"/>
<path d="M7.76002 106.685V96.4718C7.76002 95.0617 8.90328 93.9185 10.3134 93.9185H2.65332C1.24324 93.9185 0.0999756 95.0617 0.0999756 96.4718V106.685C0.0999756 108.095 1.24324 109.239 2.65332 109.239H10.3134C8.90328 109.239 7.76002 108.095 7.76002 106.685Z" fill="#885951"/>
<path d="M81.8071 1.99805C76.1754 1.99805 71.5937 6.57971 71.5937 12.2114C71.5937 17.8432 76.1754 22.4248 81.8071 22.4248C87.4388 22.4248 92.0205 17.8432 92.0205 12.2114C92.0205 6.57971 87.4388 1.99805 81.8071 1.99805Z" fill="#F79191"/>
<path d="M86.9138 19.8717C81.2821 19.8717 76.7004 15.29 76.7004 9.65831C76.7004 6.6993 77.9666 4.03137 79.9837 2.16455C75.2195 3.02694 71.5937 7.20231 71.5937 12.2117C71.5937 17.8434 76.1754 22.425 81.8071 22.425C84.4798 22.425 86.9148 21.3919 88.7369 19.7054C88.1448 19.8126 87.5362 19.8717 86.9138 19.8717Z" fill="#F56C6C"/>
<path d="M160.961 37.7446C159.698 37.7446 155.854 37.7446 155.854 30.0846C155.854 28.6745 154.711 27.5312 153.301 27.5312C151.891 27.5312 150.748 28.6745 150.748 30.0846C150.748 37.7446 146.904 37.7446 145.641 37.7446C144.231 37.7446 143.087 38.8879 143.087 40.298C143.087 41.7081 144.231 42.8513 145.641 42.8513C146.904 42.8513 150.748 42.8513 150.748 50.5114C150.748 51.9215 151.891 53.0647 153.301 53.0647C154.711 53.0647 155.854 51.9215 155.854 50.5114C155.854 42.8513 159.698 42.8513 160.961 42.8513C162.371 42.8513 163.514 41.7081 163.514 40.298C163.514 38.8879 162.371 37.7446 160.961 37.7446Z" fill="#FCE780"/>
<path d="M130.321 14.7647C129.058 14.7647 125.214 14.7647 125.214 7.10462C125.214 5.69453 124.071 4.55127 122.661 4.55127C121.251 4.55127 120.107 5.69453 120.107 7.10462C120.107 14.7647 116.264 14.7647 115.001 14.7647C113.591 14.7647 112.447 15.9079 112.447 17.318C112.447 18.7281 113.591 19.8714 115.001 19.8714C116.264 19.8714 120.107 19.8714 120.107 27.5314C120.107 28.9415 121.251 30.0848 122.661 30.0848C124.071 30.0848 125.214 28.9415 125.214 27.5314C125.214 19.8714 129.058 19.8714 130.321 19.8714C131.731 19.8714 132.874 18.7281 132.874 17.318C132.874 15.9079 131.731 14.7647 130.321 14.7647Z" fill="#FCE780"/>
<path d="M48.6136 14.7647C47.3503 14.7647 43.5069 14.7647 43.5069 7.10462C43.5069 5.69453 42.3636 4.55127 40.9535 4.55127C39.5435 4.55127 38.4002 5.69453 38.4002 7.10462C38.4002 14.7647 34.5568 14.7647 33.2935 14.7647C31.8834 14.7647 30.7401 15.9079 30.7401 17.318C30.7401 18.7281 31.8834 19.8714 33.2935 19.8714C34.5568 19.8714 38.4002 19.8714 38.4002 27.5314C38.4002 28.9415 39.5435 30.0848 40.9535 30.0848C42.3636 30.0848 43.5069 28.9415 43.5069 27.5314C43.5069 19.8714 47.3503 19.8714 48.6136 19.8714C50.0237 19.8714 51.1669 18.7281 51.1669 17.318C51.1669 15.9079 50.0237 14.7647 48.6136 14.7647Z" fill="#FCE780"/>
<path d="M17.9734 37.7446C16.7101 37.7446 12.8667 37.7446 12.8667 30.0846C12.8667 28.6745 11.7235 27.5312 10.3134 27.5312C8.90328 27.5312 7.76002 28.6745 7.76002 30.0846C7.76002 37.7446 3.91659 37.7446 2.65332 37.7446C1.24324 37.7446 0.0999756 38.8879 0.0999756 40.298C0.0999756 41.7081 1.24324 42.8513 2.65332 42.8513C3.91659 42.8513 7.76002 42.8513 7.76002 50.5114C7.76002 51.9215 8.90328 53.0647 10.3134 53.0647C11.7235 53.0647 12.8667 51.9215 12.8667 50.5114C12.8667 42.8513 16.7101 42.8513 17.9734 42.8513C19.3835 42.8513 20.5268 41.7081 20.5268 40.298C20.5268 38.8879 19.3835 37.7446 17.9734 37.7446Z" fill="#FCE780"/>
</g>
<defs>
<clipPath id="clip0_32:692">
<rect width="163.414" height="163.414" fill="white" transform="translate(0.0999756 0.992676)"/>
</clipPath>
</defs>
</svg>
